# xmcd
#
# Track frame offsets: 
#        150
#        26922
#        63023
#        100808
#        117711
#        144669
#        183089
#        198074
#        222292
#        237087
#        258942
#        276842
#
# Disc length: 4155 seconds
#
# Revision: 0
# Processed by: cddbd v1.5.2PL0 Copyright (c) Steve Scherf et al.
# Submitted via: ExactAudioCopy v0.99pb5
#
DISCID=aa10390c
DTITLE=Larry Garner with Norman Beaker and Friends - Live At The Tivoli
DYEAR=2010
DGENRE=Blues
TTITLE0=Jook Joint Woman
TTITLE1=Cold Chills
TTITLE2=No Free Rides
TTITLE3=Option On You Baby
TTITLE4=The Road Of Life
TTITLE5=Had To Quit Drinking
TTITLE6=Lies Like A River
TTITLE7=Kleptomaniac
TTITLE8=Scared Of You
TTITLE9=Shak Bully
TTITLE10=Heavy Pieces
TTITLE11=Raised In The Country
EXTD=Recorded at The Tivoli Theatre, Wimborne on Oct 8th 2009.
EXTT0=
EXTT1=
EXTT2=
EXTT3=
EXTT4=
EXTT5=
EXTT6=
EXTT7=
EXTT8=
EXTT9=
EXTT10=
EXTT11=
PLAYORDER=
